<svg xmlns="http://www.w3.org/2000/svg" xmlns:xlink="http://www.w3.org/1999/xlink" viewBox="0 0 320 190" width="320" height="190" preserveAspectRatio="xMidYMid meet" style="width: 100%; height: 100%; transform: translate3d(0px, 0px, 0px); content-visibility: visible;"><defs><clipPath id="__lottie_element_579"><rect width="320" height="190" x="0" y="0"></rect></clipPath></defs><g clip-path="url(#__lottie_element_579)"><g transform="matrix(1,0,0,1,0,0)" opacity="1" style="display: block;"><g opacity="1" transform="matrix(1,0,0,1,160.33700561523438,139.26499938964844)"><path fill="rgb(53,59,100)" fill-opacity="1" d=" M-2.259999990463257,-35.125999450683594 C-7.883999824523926,-34.340999603271484 -13.493000030517578,-37.9370002746582 -18.948999404907227,-37.37200164794922 C-20.996999740600586,-34.887001037597656 -25.14900016784668,-29.125 -28.67099952697754,-19.639999389648438 C-30.44700050354004,-14.854999542236328 -30.808000564575195,-8.125 -30.67799949645996,-1.2649999856948853 C-29.926000595092773,2.441999912261963 -29.44700050354004,6.198999881744385 -29.268999099731445,9.977999687194824 C-29.084999084472656,14.256999969482422 -27.56800079345703,18.819000244140625 -27.507999420166016,23.378000259399414 C-27.450000762939453,28.062000274658203 -29.909000396728516,32.38600158691406 -28.45199966430664,33.715999603271484 C-23.84000015258789,37.9370002746582 23.937000274658203,35.12699890136719 28.908000946044922,33.715999603271484 C30.80699920654297,33.17499923706055 27.290000915527344,28.97800064086914 26.863000869750977,22.06800079345703 C26.618000030517578,18.04400062561035 26.604000091552734,14.008999824523926 26.82200050354004,9.982999801635742 C27.07900047302246,5.491000175476074 27.5939998626709,1.0169999599456787 28.364999771118164,-3.4170000553131104 C28.422000885009766,-3.4230000972747803 28.48200035095215,-3.430000066757202 28.538999557495117,-3.437000036239624 C24.766000747680664,-16.208999633789062 17.291000366210938,-29.46500015258789 12.4399995803833,-37.284000396728516 C8.194000244140625,-36.48400115966797 2.2109999656677246,-35.10900115966797 -2.259999990463257,-35.125999450683594z"></path></g><g opacity="1" transform="matrix(1,0,0,1,0,0)"><g opacity="1" transform="matrix(0.9911646842956543,-0.13263697922229767,0.13263697922229767,0.9911646842956543,203.947998046875,138.66600036621094)"><path fill="rgb(219,175,143)" fill-opacity="1" d=" M11.170999526977539,8.946999549865723 C11.170999526977539,8.946999549865723 -1.4509999752044678,-19.14699935913086 -1.4509999752044678,-19.14699935913086 C-1.4509999752044678,-19.14699935913086 -12.531000137329102,-5.355000019073486 -12.531000137329102,-5.355000019073486 C-12.531000137329102,-5.355000019073486 -1.8309999704360962,14.574000358581543 -1.8309999704360962,14.574000358581543 C-0.45399999618530273,17.711999893188477 3.200000047683716,19.145999908447266 6.34499979019165,17.784000396728516 C6.34499979019165,17.784000396728516 7.951000213623047,17.083999633789062 7.951000213623047,17.083999633789062 C11.083999633789062,15.734999656677246 12.529999732971191,12.10099983215332 11.182000160217285,8.968000411987305 C11.182000160217285,8.968000411987305 11.17300033569336,8.946999549865723 11.17300033569336,8.946999549865723 C11.17300033569336,8.946999549865723 11.170999526977539,8.946999549865723 11.170999526977539,8.946999549865723z"></path></g><g opacity="1" transform="matrix(0.9957905411720276,0.09165804088115692,-0.09165804088115692,0.9957905411720276,216.53599548339844,134.9149932861328)"><path fill="rgb(241,197,163)" fill-opacity="1" d=" M-11.112000465393066,14.282999992370605 C-11.085000038146973,14.199000358581543 -11.055000305175781,14.114999771118164 -11.024999618530273,14.029999732971191 C-11.024999618530273,14.029999732971191 2.5280001163482666,-21.42300033569336 2.5280001163482666,-21.42300033569336 C2.553999900817871,-21.48900032043457 2.5880000591278076,-21.545000076293945 2.615999937057495,-21.61199951171875 C2.615999937057495,-21.61199951171875 3.063999891281128,-22.631999969482422 3.063999891281128,-22.631999969482422 C3.063999891281128,-22.631999969482422 3.063999891281128,-22.655000686645508 3.063999891281128,-22.655000686645508 C5.263999938964844,-20.280000686645508 8.994999885559082,-19.503000259399414 12.071999549865723,-19.308000564575195 C12.071999549865723,-19.308000564575195 2.0439999103546143,16.391000747680664 2.0439999103546143,16.391000747680664 C0.9110000133514404,20.354999542236328 -3.2139999866485596,22.655000686645508 -7.179999828338623,21.53499984741211 C-7.256999969482422,21.51300048828125 -7.333000183105469,21.490999221801758 -7.406000137329102,21.468000411987305 C-10.41100025177002,20.511999130249023 -12.071999549865723,17.30299949645996 -11.118000030517578,14.29800033569336 C-11.118000030517578,14.29800033569336 -11.112000465393066,14.282999992370605 -11.112000465393066,14.282999992370605z"></path></g><g opacity="1" transform="matrix(0.9955142140388489,0.09461220353841782,-0.09461220353841782,0.9955142140388489,226.43099975585938,117.79100036621094)"><path fill="rgb(193,146,131)" fill-opacity="1" d=" M-3.7200000286102295,-3.437999963760376 C-1.4470000267028809,-2.1500000953674316 1.1080000400543213,-1.437999963760376 3.7200000286102295,-1.3630000352859497 C3.7200000286102295,-1.3630000352859497 2.371000051498413,3.437999963760376 2.371000051498413,3.437999963760376 C-0.6349999904632568,2.242000102996826 -2.8949999809265137,-0.3100000023841858 -3.7200000286102295,-3.437999963760376z"></path></g><g opacity="1" transform="matrix(0.9823693633079529,0.0394216813147068,-0.04409818351268768,1.0989055633544922,15.560226440429688,-22.65349578857422)"><g opacity="1" transform="matrix(1,0,0,1,222.8070068359375,109.83100128173828)"><path fill="rgb(241,197,163)" fill-opacity="1" d=" M-5.633999824523926,1.0089999437332153 C-4.374000072479248,3.377000093460083 -1.4329999685287476,4.2769999504089355 0.9350000023841858,3.0169999599456787 C1.4539999961853027,2.740999937057495 1.9179999828338623,2.372999906539917 2.305000066757202,1.9320000410079956 C2.305000066757202,1.9320000410079956 4.97599983215332,-1.121999979019165 4.97599983215332,-1.121999979019165 C5.545000076293945,-1.6979999542236328 5.633999824523926,-2.5940001010894775 5.189000129699707,-3.2709999084472656 C4.684999942779541,-4.035999774932861 3.671999931335449,-4.2769999504089355 2.878000020980835,-3.818000078201294 C2.878000020980835,-3.818000078201294 -1.0549999475479126,-1.562999963760376 -1.0549999475479126,-1.562999963760376 C-1.0549999475479126,-1.562999963760376 -5.632999897003174,1.0110000371932983 -5.632999897003174,1.0110000371932983 C-5.632999897003174,1.0110000371932983 -5.633999824523926,1.0089999437332153 -5.633999824523926,1.0089999437332153z"></path></g><g opacity="1" transform="matrix(1,0,0,1,226.51199340820312,112.77400207519531)"><path fill="rgb(241,197,163)" fill-opacity="1" d=" M-11.91100025177002,3.2730000019073486 C-12.095000267028809,1.5019999742507935 -11.475000381469727,-0.25999999046325684 -10.222999572753906,-1.5269999504089355 C-10.166000366210938,-1.569000005722046 -10.105999946594238,-1.6069999933242798 -10.045000076293945,-1.6410000324249268 C-10.045000076293945,-1.6410000324249268 -10.067000389099121,-1.7059999704360962 -10.067000389099121,-1.7059999704360962 C-7.579999923706055,-3.438999891281128 -2.3429999351501465,-3.059000015258789 1.1549999713897705,-2.552999973297119 C3.302000045776367,-2.240000009536743 5.431000232696533,-3.2239999771118164 6.584000110626221,-5.060999870300293 C7.447999954223633,-6.427999973297119 9.256999969482422,-6.836999893188477 10.625,-5.9730000495910645 C11.571000099182129,-5.375 12.095000267028809,-4.289000034332275 11.972999572753906,-3.1760001182556152 C11.920000076293945,-2.7049999237060547 11.751999855041504,-2.253000020980835 11.484999656677246,-1.8630000352859497 C11.484999656677246,-1.8630000352859497 7.255000114440918,4.321000099182129 7.255000114440918,4.321000099182129 C6.618000030517578,5.250999927520752 5.543000221252441,5.781000137329102 4.418000221252441,5.7210001945495605 C4.418000221252441,5.7210001945495605 -2.2990000247955322,6.7729997634887695 -2.2990000247955322,6.7729997634887695 C-2.2990000247955322,6.7729997634887695 -2.315999984741211,6.836999893188477 -2.315999984741211,6.836999893188477 C-5.5970001220703125,6.627999782562256 -9.567999839782715,5.801000118255615 -11.91100025177002,3.2730000019073486z"></path></g><g opacity="0.3" transform="matrix(1,0,0,1,229.27099609375,113.10299682617188)"><path stroke-linecap="round" stroke-linejoin="miter" fill-opacity="0" stroke-miterlimit="10" stroke="rgb(145,97,98)" stroke-opacity="1" stroke-width="1" d=" M3.5899999141693115,-2.1700000762939453 C3.3389999866485596,0.2199999988079071 -1.5049999952316284,2.1700000762939453 -3.5899999141693115,1.3669999837875366"></path></g></g></g><g opacity="1" transform="matrix(1,0,0,1,0,0)"><g opacity="1" transform="matrix(0.9979459047317505,0.06406204402446747,-0.06406204402446747,0.9979459047317505,116.30400085449219,139.33399963378906)"><path fill="rgb(219,175,143)" fill-opacity="1" d=" M-11.170000076293945,8.946999549865723 C-11.170000076293945,8.946999549865723 1.4509999752044678,-19.145999908447266 1.4509999752044678,-19.145999908447266 C1.4509999752044678,-19.145999908447266 12.531000137329102,-5.354000091552734 12.531000137329102,-5.354000091552734 C12.531000137329102,-5.354000091552734 1.8309999704360962,14.572999954223633 1.8309999704360962,14.572999954223633 C0.45399999618530273,17.711000442504883 -3.200000047683716,19.145999908447266 -6.34499979019165,17.784000396728516 C-6.34499979019165,17.784000396728516 -7.951000213623047,17.083999633789062 -7.951000213623047,17.083999633789062 C-11.083999633789062,15.734999656677246 -12.531000137329102,12.10099983215332 -11.182000160217285,8.968000411987305 C-11.182000160217285,8.968000411987305 -11.17199993133545,8.946999549865723 -11.17199993133545,8.946999549865723 C-11.17199993133545,8.946999549865723 -11.170000076293945,8.946999549865723 -11.170000076293945,8.946999549865723z"></path></g><g opacity="1" transform="matrix(0.9822348952293396,-0.18765561282634735,0.18765561282634735,0.9822348952293396,103.05000305175781,136.9149932861328)"><path fill="rgb(241,197,163)" fill-opacity="1" d=" M11.112000465393066,14.282999992370605 C11.085000038146973,14.199000358581543 11.055999755859375,14.114999771118164 11.024999618530273,14.029999732971191 C11.024999618530273,14.029999732971191 -2.5269999504089355,-21.42300033569336 -2.5269999504089355,-21.42300033569336 C-2.553999900817871,-21.48900032043457 -2.5889999866485596,-21.545000076293945 -2.615999937057495,-21.61199951171875 C-2.615999937057495,-21.61199951171875 -3.063999891281128,-22.631999969482422 -3.063999891281128,-22.631999969482422 C-3.063999891281128,-22.631999969482422 -3.063999891281128,-22.655000686645508 -3.063999891281128,-22.655000686645508 C-5.263999938964844,-20.280000686645508 -8.996000289916992,-19.503000259399414 -12.071999549865723,-19.308000564575195 C-12.071999549865723,-19.308000564575195 -2.0450000762939453,16.391000747680664 -2.0450000762939453,16.391000747680664 C-0.9120000004768372,20.354999542236328 3.2130000591278076,22.655000686645508 7.179999828338623,21.53499984741211 C7.25600004196167,21.51300048828125 7.333000183105469,21.490999221801758 7.406000137329102,21.468000411987305 C10.40999984741211,20.511999130249023 12.071999549865723,17.30299949645996 11.118000030517578,14.29800033569336 C11.118000030517578,14.29800033569336 11.112000465393066,14.282999992370605 11.112000465393066,14.282999992370605z"></path></g><g opacity="1" transform="matrix(0.9835935235023499,-0.18039897084236145,0.18039897084236145,0.9835935235023499,91.50299835205078,120.8550033569336)"><path fill="rgb(193,146,131)" fill-opacity="1" d=" M3.7200000286102295,-3.437999963760376 C1.4470000267028809,-2.1500000953674316 -1.1080000400543213,-1.437999963760376 -3.7200000286102295,-1.3630000352859497 C-3.7200000286102295,-1.3630000352859497 -2.371000051498413,3.437999963760376 -2.371000051498413,3.437999963760376 C0.6349999904632568,2.242000102996826 2.8949999809265137,-0.3100000023841858 3.7200000286102295,-3.437999963760376z"></path></g><g opacity="1" transform="matrix(0.9960797429084778,-0.08845968544483185,0.08845968544483185,0.9960797429084778,-19.241424560546875,9.801971435546875)"><g opacity="1" transform="matrix(1,0,0,1,97.11199951171875,109.83200073242188)"><path fill="rgb(241,197,163)" fill-opacity="1" d=" M5.633999824523926,1.0089999437332153 C4.374000072479248,3.377000093460083 1.4329999685287476,4.276000022888184 -0.9350000023841858,3.0160000324249268 C-1.4539999961853027,2.740000009536743 -1.9179999828338623,2.372999906539917 -2.305000066757202,1.9320000410079956 C-2.305000066757202,1.9320000410079956 -4.97599983215332,-1.1230000257492065 -4.97599983215332,-1.1230000257492065 C-5.545000076293945,-1.6990000009536743 -5.633999824523926,-2.5950000286102295 -5.189000129699707,-3.2720000743865967 C-4.684999942779541,-4.0370001792907715 -3.671999931335449,-4.2769999504089355 -2.878000020980835,-3.818000078201294 C-2.878000020980835,-3.818000078201294 1.0549999475479126,-1.562999963760376 1.0549999475479126,-1.562999963760376 C1.0549999475479126,-1.562999963760376 5.632999897003174,1.0099999904632568 5.632999897003174,1.0099999904632568 C5.632999897003174,1.0099999904632568 5.633999824523926,1.0089999437332153 5.633999824523926,1.0089999437332153z"></path></g><g opacity="1" transform="matrix(1,0,0,1,93.40699768066406,112.77400207519531)"><path fill="rgb(241,197,163)" fill-opacity="1" d=" M11.91100025177002,3.2730000019073486 C12.095000267028809,1.5019999742507935 11.47599983215332,-0.25999999046325684 10.222999572753906,-1.5269999504089355 C10.166000366210938,-1.569000005722046 10.107000350952148,-1.6069999933242798 10.045000076293945,-1.6410000324249268 C10.045000076293945,-1.6410000324249268 10.067999839782715,-1.7059999704360962 10.067999839782715,-1.7059999704360962 C7.579999923706055,-3.438999891281128 2.3420000076293945,-3.059000015258789 -1.156000018119812,-2.552999973297119 C-3.302000045776367,-2.240000009536743 -5.431000232696533,-3.2239999771118164 -6.585000038146973,-5.060999870300293 C-7.447999954223633,-6.427999973297119 -9.255999565124512,-6.836999893188477 -10.62399959564209,-5.9730000495910645 C-11.571000099182129,-5.375 -12.095000267028809,-4.289000034332275 -11.972999572753906,-3.1760001182556152 C-11.920999526977539,-2.7049999237060547 -11.751999855041504,-2.253000020980835 -11.484000205993652,-1.8630000352859497 C-11.484000205993652,-1.8630000352859497 -7.255000114440918,4.321000099182129 -7.255000114440918,4.321000099182129 C-6.617000102996826,5.250999927520752 -5.544000148773193,5.781000137329102 -4.419000148773193,5.7210001945495605 C-4.419000148773193,5.7210001945495605 2.299999952316284,6.7729997634887695 2.299999952316284,6.7729997634887695 C2.299999952316284,6.7729997634887695 2.318000078201294,6.836999893188477 2.318000078201294,6.836999893188477 C5.5960001945495605,6.629000186920166 9.569000244140625,5.801000118255615 11.91100025177002,3.2730000019073486z"></path></g><g opacity="0.3" transform="matrix(1,0,0,1,90.64800262451172,113.10299682617188)"><path stroke-linecap="round" stroke-linejoin="miter" fill-opacity="0" stroke-miterlimit="10" stroke="rgb(145,97,98)" stroke-opacity="1" stroke-width="1" d=" M-3.5899999141693115,-2.1700000762939453 C-3.3389999866485596,0.2199999988079071 1.503999948501587,2.1700000762939453 3.5889999866485596,1.3669999837875366"></path></g></g></g><g opacity="1" transform="matrix(0.9986295104026794,0.0523359552025795,-0.0523359552025795,0.9986295104026794,128.8979949951172,118)"><path fill="rgb(53,59,100)" fill-opacity="1" d=" M12.168999671936035,-17.77400016784668 C11.387999534606934,-17.716999053955078 10.609000205993652,-17.582000732421875 9.833999633789062,-17.336999893188477 C5.7230000495910645,-16.052000045776367 0.8629999756813049,-15.550000190734863 -2.9560000896453857,-12.41100025177002 C-2.9560000896453857,-12.41100025177002 -2.9560000896453857,-12.432999610900879 -2.9560000896453857,-12.432999610900879 C-2.9560000896453857,-12.432999610900879 -3.2209999561309814,-12.220000267028809 -3.7049999237060547,-11.788999557495117 C-4.413000106811523,-11.180000305175781 -5.113999843597412,-10.550000190734863 -5.804999828338623,-9.87600040435791 C-5.804999828338623,-9.87600040435791 -5.804999828338623,-9.831999778747559 -5.804999828338623,-9.831999778747559 C-8.152999877929688,-7.5320000648498535 -12.748000144958496,-0.03999999910593033 -12.11299991607666,6.243000030517578 C-11.755000114440918,9.824999809265137 -6.39300012588501,16.65399932861328 -0.03999999910593033,17.67799949645996 C-0.032999999821186066,17.708999633789062 -0.02800000086426735,17.742000579833984 -0.02199999988079071,17.773000717163086 C3.427000045776367,13.42300033569336 6.410999774932861,8.711000442504883 8.35200023651123,3.7860000133514404 C11.364999771118164,-3.865000009536743 12.748000144958496,-11.720999717712402 12.168999671936035,-17.77400016784668z"></path></g><g opacity="1" transform="matrix(0.9987325668334961,-0.0503314733505249,0.0503314733505249,0.9987325668334961,190.0679931640625,117)"><path fill="rgb(53,59,100)" fill-opacity="1" d=" M-1.0260000228881836,17.238000869750977 C2.640000104904175,16.844999313354492 8.031000137329102,15.888999938964844 9.942999839782715,14.489999771118164 C17.128000259399414,9.253999710083008 10.0600004196167,-3.933000087738037 4.427999973297119,-11.402000427246094 C-0.1589999943971634,-14.756999969482422 -7.303999900817871,-15.277000427246094 -12.597999572753906,-17.155000686645508 C-13.491999626159668,-17.238000869750977 -15.119999885559082,-16.985000610351562 -17.128000259399414,-16.60700035095215 C-16.636999130249023,-11.737000465393066 -15.197999954223633,-4.5960001945495605 -11.310999870300293,3.9489998817443848 C-9.244000434875488,8.493000030517578 -5.64900016784668,12.720000267028809 -1.0260000228881836,17.238000869750977z"></path></g><g opacity="0.35000000000000003" transform="matrix(1,0,0,1,190.9340057373047,113.25199890136719)"><path stroke-linecap="round" stroke-linejoin="miter" fill-opacity="0" stroke-miterlimit="4" stroke="rgb(0,0,0)" stroke-opacity="1" stroke-width="1" d=" M2.2980000972747803,-5.672999858856201 C2.2980000972747803,-5.672999858856201 -2.2980000972747803,-1.8980000019073486 -1.5759999752044678,5.672999858856201"></path></g><g opacity="0.35000000000000003" transform="matrix(1,0,0,1,128.4239959716797,113.56900024414062)"><path stroke-linecap="round" stroke-linejoin="miter" fill-opacity="0" stroke-miterlimit="4" stroke="rgb(0,0,0)" stroke-opacity="1" stroke-width="1" d=" M-0.9459999799728394,-4.2769999504089355 C-0.9459999799728394,-4.2769999504089355 0.9449999928474426,0.4050000011920929 0.22100000083446503,4.2769999504089355"></path></g></g><g transform="matrix(1,0,0,1,0,0)" opacity="1" style="display: block;"><g opacity="1" transform="matrix(1,0,0,1,158.18499755859375,103)"><path fill="rgb(241,197,163)" fill-opacity="1" d=" M-0.1720000058412552,-6.252999782562256 C-0.1720000058412552,-6.252999782562256 -8.244999885559082,-6.690000057220459 -18.777999877929688,-2.0439999103546143 C-18.777999877929688,-2.0439999103546143 -18.999000549316406,7.020999908447266 -0.8119999766349792,7.020999908447266 C17.374000549316406,7.020999908447266 18.999000549316406,-2.9130001068115234 18.999000549316406,-2.9130001068115234 C18.999000549316406,-2.9130001068115234 7.448999881744385,-7.020999908447266 -0.1720000058412552,-6.252999782562256z"></path></g><g opacity="1" transform="matrix(1,0,0,1,157.48500061035156,94.38500213623047)"><path fill="rgb(241,197,163)" fill-opacity="1" d=" M8.829999923706055,10.925000190734863 C8.829999923706055,10.925000190734863 8.770000457763672,10.942999839782715 8.770000457763672,10.942999839782715 C7.263000011444092,11.279999732971191 5.730999946594238,11.50100040435791 4.189000129699707,11.604999542236328 C4.189000129699707,11.604999542236328 4.171000003814697,11.604999542236328 4.171000003814697,11.604999542236328 C-0.42800000309944153,11.692999839782715 -4.951000213623047,10.420999526977539 -8.829000473022461,7.948999881744385 C-8.829000473022461,7.948999881744385 -8.645000457763672,-1.5260000228881836 -8.645000457763672,-1.5260000228881836 C-8.645000457763672,-1.5260000228881836 -8.442999839782715,-11.694000244140625 -8.442999839782715,-11.694000244140625 C-8.442999839782715,-11.694000244140625 -6.105000019073486,-10.982999801635742 -6.105000019073486,-10.982999801635742 C-6.105000019073486,-10.982999801635742 8.425999641418457,-6.550000190734863 8.425999641418457,-6.550000190734863 C8.425999641418457,-6.550000190734863 8.704999923706055,5.2789998054504395 8.704999923706055,5.2789998054504395 C8.704999923706055,5.2789998054504395 8.829999923706055,10.925000190734863 8.829999923706055,10.925000190734863z"></path></g><g opacity="0.45" transform="matrix(1,0,0,1,157.4550018310547,91.21199798583984)"><path fill="rgb(32,24,27)" fill-opacity="1" d=" M0,6.809000015258789 C4.199999809265137,6.809000015258789 7.710999965667725,4.309999942779541 8.567000389099121,0.9769999980926514 C8.567000389099121,0.9769999980926514 8.484999656677246,-2.4549999237060547 8.484999656677246,-2.4549999237060547 C8.454000473022461,-2.561000108718872 8.425999641418457,-2.6679999828338623 8.385000228881836,-2.7739999294281006 C8.385000228881836,-2.7739999294281006 -4.826000213623047,-6.809999942779541 -4.826000213623047,-6.809999942779541 C-6.570000171661377,-5.888000011444092 -7.888000011444092,-4.323999881744385 -8.5,-2.447999954223633 C-8.5,-2.447999954223633 -8.567000389099121,0.9929999709129333 -8.567000389099121,0.9929999709129333 C-7.699999809265137,4.321000099182129 -4.199999809265137,6.809000015258789 0,6.809000015258789z"></path></g><g opacity="1" transform="matrix(0.9986295104026794,0.0523359552025795,-0.0523359552025795,0.9986295104026794,5.191192626953125,-8.243560791015625)"><g opacity="1" transform="matrix(1,0,0,1,136.27699279785156,72.5770034790039)"><path fill="rgb(241,197,163)" fill-opacity="1" d=" M4.8460001945495605,6.369999885559082 C1.184999942779541,9.079999923706055 -5.168000221252441,-3.240000009536743 -1.590999960899353,-6.159999847412109 C1.9859999418258667,-9.079999923706055 4.23199987411499,-3.6760001182556152 4.23199987411499,-3.6760001182556152 C4.23199987411499,-3.6760001182556152 4.432000160217285,0.7950000166893005 4.432000160217285,0.7950000166893005 C4.432000160217285,0.7950000166893005 4.9679999351501465,5.043000221252441 4.9679999351501465,5.043000221252441 C4.9679999351501465,5.043000221252441 5.168000221252441,6.3480000495910645 5.168000221252441,6.3480000495910645 C5.168000221252441,6.3480000495910645 4.8460001945495605,6.369999885559082 4.8460001945495605,6.369999885559082z"></path></g><g opacity="1" transform="matrix(1,0,0,1,137.95199584960938,71.20600128173828)"><path stroke-linecap="round" stroke-linejoin="round" fill-opacity="0" stroke="rgb(255,161,132)" stroke-opacity="1" stroke-width="0.674" d=" M-2.2730000019073486,-1.069000005722046 C-2.2730000019073486,-1.069000005722046 0.38199999928474426,-1.9539999961853027 2.2730000019073486,1.9539999961853027"></path></g><g opacity="1" transform="matrix(1,0,0,1,137.49200439453125,73.18099975585938)"><path stroke-linecap="round" stroke-linejoin="round" fill-opacity="0" stroke="rgb(255,161,132)" stroke-opacity="1" stroke-width="0.674" d=" M1.4470000267028809,-1.9329999685287476 C1.4470000267028809,-1.9329999685287476 -1.4459999799728394,-0.3889999985694885 0.46399998664855957,1.9329999685287476"></path></g><g opacity="1" transform="matrix(1,0,0,1,157.48699951171875,44.46900177001953)"><path fill="rgb(32,24,27)" fill-opacity="1" d=" M0,-10.145999908447266 C5.622000217437744,-10.145999908447266 10.178000450134277,-5.604000091552734 10.178000450134277,0 C10.178000450134277,5.603000164031982 5.622000217437744,10.145999908447266 0,10.145999908447266 C-5.620999813079834,10.145999908447266 -10.178000450134277,5.603000164031982 -10.178000450134277,0 C-10.178000450134277,-5.604000091552734 -5.620999813079834,-10.145999908447266 0,-10.145999908447266z"></path></g><g opacity="0.25" transform="matrix(1,0,0,1,157.1719970703125,50.722999572753906)"><path fill="rgb(255,255,255)" fill-opacity="1" d=" M0,-6.642000198364258 C5.375999927520752,-6.642000198364258 9.734000205993652,-3.6679999828338623 9.734000205993652,0 C9.734000205993652,3.6679999828338623 5.375999927520752,6.642000198364258 0,6.642000198364258 C-5.375999927520752,6.642000198364258 -9.734000205993652,3.6679999828338623 -9.734000205993652,0 C-9.734000205993652,-3.6679999828338623 -5.375999927520752,-6.642000198364258 0,-6.642000198364258z"></path></g><g opacity="1" transform="matrix(1,0,0,1,165.89300537109375,88.60199737548828)"><path fill="rgb(32,24,27)" fill-opacity="1" d=" M0.03799999877810478,-0.13199999928474426 C0.03799999877810478,-0.13199999928474426 -0.050999999046325684,-0.16099999845027924 -0.050999999046325684,-0.16099999845027924 C-0.013000000268220901,-0.05400000140070915 0.014999999664723873,0.054999999701976776 0.05000000074505806,0.16099999845027924 C0.05000000074505806,0.16099999845027924 0.03799999877810478,-0.13199999928474426 0.03799999877810478,-0.13199999928474426z"></path></g><g opacity="1" transform="matrix(1,0,0,1,178.02999877929688,72.51699829101562)"><path fill="rgb(241,197,163)" fill-opacity="1" d=" M-4.8429999351501465,6.363999843597412 C-1.1710000038146973,9.074999809265137 5.171000003814697,-3.243000030517578 1.593999981880188,-6.158999919891357 C-1.9839999675750732,-9.074999809265137 -4.3429999351501465,-3.7300000190734863 -4.3429999351501465,-3.7300000190734863 C-4.3429999351501465,-3.7300000190734863 -4.432000160217285,0.7940000295639038 -4.432000160217285,0.7940000295639038 C-4.432000160217285,0.7940000295639038 -4.966000080108643,5.041999816894531 -4.966000080108643,5.041999816894531 C-4.966000080108643,5.041999816894531 -5.171000003814697,6.3480000495910645 -5.171000003814697,6.3480000495910645 C-5.171000003814697,6.3480000495910645 -4.8429999351501465,6.363999843597412 -4.8429999351501465,6.363999843597412z"></path></g><g opacity="1" transform="matrix(1,0,0,1,176.35800170898438,71.13899993896484)"><path stroke-linecap="round" stroke-linejoin="round" fill-opacity="0" stroke="rgb(255,161,132)" stroke-opacity="1" stroke-width="0.674" d=" M2.2730000019073486,-1.069000005722046 C2.2730000019073486,-1.069000005722046 -0.382999986410141,-1.9539999961853027 -2.2739999294281006,1.9539999961853027"></path></g><g opacity="1" transform="matrix(1,0,0,1,176.8249969482422,73.11499786376953)"><path stroke-linecap="round" stroke-linejoin="round" fill-opacity="0" stroke="rgb(255,161,132)" stroke-opacity="1" stroke-width="0.674" d=" M-1.4470000267028809,-1.934000015258789 C-1.4470000267028809,-1.934000015258789 1.4470000267028809,-0.3880000114440918 -0.46399998664855957,1.934000015258789"></path></g><g opacity="1" transform="matrix(1,0,0,1,157.33599853515625,73.5780029296875)"><path fill="rgb(241,197,163)" fill-opacity="1" d=" M17.253000259399414,0.2630000114440918 C17.31800079345703,5.489999771118164 15.661999702453613,10.593000411987305 12.541000366210938,14.78499984741211 C9.557999610900879,18.673999786376953 4.889999866485596,20.895000457763672 -0.009999999776482582,20.756999969482422 C-5.5329999923706055,20.843000411987305 -10.694000244140625,18.014999389648438 -13.593999862670898,13.314000129699707 C-16.040000915527344,9.402000427246094 -17.31800079345703,4.873000144958496 -17.277000427246094,0.2590000033378601 C-17.277000427246094,-11.423999786376953 -17.277000427246094,-20.895000457763672 -0.008999999612569809,-20.895000457763672 C17.259000778198242,-20.895000457763672 17.253000259399414,-11.420999526977539 17.253000259399414,0.2630000114440918z"></path></g><g opacity="1" transform="matrix(1,0,0,1,146.9040069580078,79.4990005493164)"><path fill="rgb(255,161,132)" fill-opacity="1" d=" M2.6700000762939453,-0.23000000417232513 C2.7809998989105225,1.24399995803833 1.6759999990463257,2.5299999713897705 0.20200000703334808,2.6410000324249268 C-1.2719999551773071,2.752000093460083 -2.558000087738037,1.6480000019073486 -2.6689999103546143,0.17399999499320984 C-2.7799999713897705,-1.2999999523162842 -1.6749999523162842,-2.5869998931884766 -0.20100000500679016,-2.697999954223633 C-0.20100000500679016,-2.697999954223633 -0.19099999964237213,-2.697999954223633 -0.19099999964237213,-2.697999954223633 C-0.12600000202655792,-2.697999954223633 -0.06199999898672104,-2.7049999237060547 0.00800000037997961,-2.7049999237060547 C1.4249999523162842,-2.753000020980835 2.615000009536743,-1.6469999551773071 2.6700000762939453,-0.23000000417232513z"></path></g><g opacity="1" transform="matrix(1,0,0,1,166.197998046875,79.49500274658203)"><path fill="rgb(255,161,132)" fill-opacity="1" d=" M2.6700000762939453,-0.22699999809265137 C2.7809998989105225,1.246999979019165 1.6759999990463257,2.5320000648498535 0.20200000703334808,2.6440000534057617 C-1.2719999551773071,2.755000114440918 -2.558000087738037,1.649999976158142 -2.6689999103546143,0.17599999904632568 C-2.7799999713897705,-1.2979999780654907 -1.6759999990463257,-2.5840001106262207 -0.20100000500679016,-2.694999933242798 C-0.20100000500679016,-2.694999933242798 -0.19300000369548798,-2.694999933242798 -0.19300000369548798,-2.694999933242798 C-0.12700000405311584,-2.694999933242798 -0.06400000303983688,-2.703000068664551 0.007000000216066837,-2.703000068664551 C1.4259999990463257,-2.755000114440918 2.61899995803833,-1.6469999551773071 2.6730000972747803,-0.2280000001192093 C2.6730000972747803,-0.2280000001192093 2.6700000762939453,-0.22699999809265137 2.6700000762939453,-0.22699999809265137z"></path></g><g opacity="1" transform="matrix(1,0,0,1,157.47799682617188,78.09200286865234)"><path stroke-linecap="round" stroke-linejoin="miter" fill-opacity="0" stroke-miterlimit="10" stroke="rgb(234,138,112)" stroke-opacity="1" stroke-width="1" d=" M-1.0460000038146973,-3.246999979019165 C-1.0460000038146973,-3.246999979019165 -1.6890000104904175,1.8109999895095825 -1.6890000104904175,1.8109999895095825 C-1.690000057220459,2.6029999256134033 -1.0479999780654907,3.246000051498413 -0.2549999952316284,3.246999979019165 C-0.10899999737739563,3.246999979019165 0.03700000047683716,3.2239999771118164 0.1770000010728836,3.180000066757202 C0.1770000010728836,3.180000066757202 1.690000057220459,2.7809998989105225 1.690000057220459,2.7809998989105225"></path></g><g opacity="1" transform="matrix(1,0,0,1,157.14599609375,61.28499984741211)"><path fill="rgb(32,24,27)" fill-opacity="1" d=" M17.600000381469727,-3.0399999618530273 C17.600000381469727,-3.0399999618530273 15.720999717712402,-15.782999992370605 -0.1420000046491623,-15.012999534606934 C-14.14900016784668,-14.336000442504883 -17.8799991607666,-5.578000068664551 -18.062999725341797,1.0870000123977661 C-18.163000106811523,4.75600004196167 -17.270000457763672,11.324999809265137 -17.083999633789062,13.555000305175781 C-16.819000244140625,11.939000129699707 -16.655000686645508,8.37600040435791 -14.727999687194824,5.120999813079834 C-12.295000076293945,0.9990000128746033 -8.993000030517578,-2.746000051498413 0.039000000804662704,-2.746000051498413 C5.114999771118164,-2.746000051498413 10.555000305175781,-0.7080000042915344 13.755999565124512,3.746999979019165 C16.243999481201172,7.211999893188477 17.08799934387207,12.793999671936035 17.19700050354004,15.782999992370605 C17.440000534057617,13.682999610900879 17.84000015258789,7.553999900817871 17.886999130249023,5.869999885559082 C18.16200065612793,2.8989999294281006 18.06599998474121,-0.09399999678134918 17.600000381469727,-3.0399999618530273z"></path></g><g opacity="1" transform="matrix(1,0,0,1,157.41299438476562,59.57699966430664)"><path fill="rgb(32,24,27)" fill-opacity="1" d=" M-9.557999610900879,-0.3109999895095825 C-9.557999610900879,-0.3109999895095825 -10.857999801635742,4.8379998207092285 -9.857999801635742,4.888999938964844 C-7.953999996185303,4.959000110626221 -6.047999858856201,4.870999813079834 -4.1579999923706055,4.627999782562256 C-3.7090001106262207,4.388000011444092 -3.507999897003174,0.8289999961853027 -3.1579999923706055,0.7879999876022339 C-2.808000087738037,0.746999979019165 -3.0510001182556152,4.568999767303467 -2.4079999923706055,4.627999782562256 C-0.7429999709129333,4.7270002365112305 0.9269999861717224,4.7270002365112305 2.5920000076293945,4.627999782562256 C3.1429998874664307,4.491000175476074 3.2300000190734863,0.8289999961853027 3.4609999656677246,0.7879999876022339 C3.691999912261963,0.746999979019165 4.191999912261963,4.568999767303467 4.747000217437744,4.627999782562256 C5.302000045776367,4.686999797821045 9.657999992370605,4.927999973297119 10.258000373840332,4.894999980926514 C10.859000205993652,4.861999988555908 9.258000373840332,-1.9479999542236328 9.258000373840332,-1.9479999542236328 C9.258000373840332,-1.9479999542236328 -2.180999994277954,-4.960000038146973 -2.180999994277954,-4.960000038146973 C-2.180999994277954,-4.960000038146973 -9.557999610900879,-0.3109999895095825 -9.557999610900879,-0.3109999895095825z"></path></g><g opacity="1" transform="matrix(1,0,0,1,157.47000122070312,89.58100128173828)"><path fill="rgb(255,161,132)" fill-opacity="1" d=" M0.9800000190734863,0.7360000014305115 C1.6130000352859497,0.6110000014305115 2.2200000286102295,0.38199999928474426 2.7790000438690186,0.057999998331069946 C3.0320000648498535,-0.09600000083446503 3.111999988555908,-0.4269999861717224 2.9579999446868896,-0.6800000071525574 C2.9579999446868896,-0.6800000071525574 2.9579999446868896,-0.6809999942779541 2.9579999446868896,-0.6809999942779541 C2.799999952316284,-0.9350000023841858 2.4670000076293945,-1.0130000114440918 2.2119998931884766,-0.8569999933242798 C0.8370000123977661,-0.07199999690055847 -0.8360000252723694,-0.014999999664723873 -2.26200008392334,-0.7020000219345093 C-2.5230000019073486,-0.8320000171661377 -2.8399999141693115,-0.7310000061988831 -2.9769999980926514,-0.4740000069141388 C-2.9769999980926514,-0.4740000069141388 -2.9769999980926514,-0.4620000123977661 -2.9769999980926514,-0.4620000123977661 C-3.111999988555908,-0.19699999690055847 -3.006999969482422,0.12700000405311584 -2.742000102996826,0.2619999945163727 C-1.593999981880188,0.8460000157356262 -0.27799999713897705,1.0130000114440918 0.9800000190734863,0.7360000014305115z"></path></g></g><g opacity="1" transform="matrix(0.9986295104026794,0.0523359552025795,-0.0523359552025795,0.9986295104026794,5.4659423828125,-8.1153564453125)"><g opacity="0.5" transform="matrix(0.9993908405303955,-0.03489949554204941,0.03489949554204941,0.9993908405303955,157.79400634765625,85.32573699951172)"><path stroke-linecap="round" stroke-linejoin="round" fill-opacity="0" stroke="rgb(62,53,56)" stroke-opacity="1" stroke-width="0.9" d=" M5.261000156402588,0.7670000195503235 C1.9880000352859497,-1.246000051498413 -2.183000087738037,-1.055999994277954 -5.260000228881836,1.246000051498413"></path></g><g opacity="1" transform="matrix(1.0552526712417603,0,0,1.144747257232666,149.58399963378906,74.96694946289062)"><path fill="rgb(32,24,27)" fill-opacity="1" d=" M1.024999976158142,-0.017999999225139618 C1.0490000247955322,0.9129999876022339 0.5979999899864197,1.690000057220459 0.02500000037252903,1.690000057220459 C-0.5479999780654907,1.690000057220459 -1.0299999713897705,0.9419999718666077 -1.0390000343322754,0.01600000075995922 C-1.0479999780654907,-0.9100000262260437 -0.6100000143051147,-1.690000057220459 -0.039000000804662704,-1.690000057220459 C0.5320000052452087,-1.690000057220459 1.0140000581741333,-0.9480000138282776 1.024999976158142,-0.017999999225139618z"></path></g><g opacity="1" transform="matrix(1.0552526712417603,0,0,1.144747257232666,164.29800415039062,74.77794647216797)"><path fill="rgb(32,24,27)" fill-opacity="1" d=" M-1.0260000228881836,-0.017000000923871994 C-1.0490000247955322,0.9129999876022339 -0.597000002861023,1.690000057220459 -0.01899999938905239,1.690000057220459 C0.5590000152587891,1.690000057220459 1.0360000133514404,0.9430000185966492 1.0420000553131104,0.017000000923871994 C1.0490000247955322,-0.9089999794960022 0.6140000224113464,-1.690000057220459 0.035999998450279236,-1.690000057220459 C-0.5410000085830688,-1.690000057220459 -1.0119999647140503,-0.9480000138282776 -1.0260000228881836,-0.017000000923871994z"></path></g><g opacity="1" transform="matrix(1,0,0,1,147.26199340820312,70.75595092773438)"><path fill="rgb(32,24,27)" fill-opacity="1" d=" M2.3929998874664307,-0.3199999928474426 C2.3929998874664307,-0.3199999928474426 3.4560000896453857,-1.055999994277954 2.9779999256134033,-1.7790000438690186 C2.5,-2.502000093460083 1.8619999885559082,-1.934000015258789 1.3450000286102295,-1.5190000534057617 C0.574999988079071,-0.8830000162124634 -0.3199999928474426,-0.41499999165534973 -1.281000018119812,-0.14399999380111694 C-1.9809999465942383,0.09399999678134918 -2.7170000076293945,0.20800000429153442 -3.4560000896453857,0.19300000369548798 C-3.4560000896453857,0.19300000369548798 -2.115999937057495,2.500999927520752 2.3929998874664307,-0.3199999928474426z"></path></g><g opacity="1" transform="matrix(1,0,0,1,166.6840057373047,70.77428436279297)"><path fill="rgb(32,24,27)" fill-opacity="1" d=" M-2.3289999961853027,0.10400000214576721 C-2.3289999961853027,0.10400000214576721 -3.5139999389648438,-0.4169999957084656 -3.183000087738037,-1.218000054359436 C-2.8510000705718994,-2.0190000534057617 -2.117000102996826,-1.5829999446868896 -1.5269999504089355,-1.2710000276565552 C-0.6489999890327454,-0.7940000295639038 0.31700000166893005,-0.5040000081062317 1.3140000104904175,-0.4189999997615814 C2.0460000038146973,-0.3190000057220459 2.7899999618530273,-0.34700000286102295 3.5139999389648438,-0.5009999871253967 C3.5139999389648438,-0.5009999871253967 2.6489999294281006,2.0190000534057617 -2.3289999961853027,0.10400000214576721z"></path></g><g opacity="1" transform="matrix(1,0,0,1,0,0)"><g opacity="1" transform="matrix(1,0,0,1,165.4199981689453,74.32599639892578)"><path stroke-linecap="butt" stroke-linejoin="miter" fill-opacity="0" stroke-miterlimit="10" stroke="rgb(255,255,255)" stroke-opacity="1" stroke-width="1" d=" M0,-5.886000156402588 C3.1540000438690186,-5.886000156402588 5.710999965667725,-3.250999927520752 5.710999965667725,0 C5.710999965667725,3.250999927520752 3.1540000438690186,5.886000156402588 0,5.886000156402588 C-3.1540000438690186,5.886000156402588 -5.710999965667725,3.250999927520752 -5.710999965667725,0 C-5.710999965667725,-3.250999927520752 -3.1540000438690186,-5.886000156402588 0,-5.886000156402588z"></path></g><g opacity="1" transform="matrix(1,0,0,1,148.88900756835938,74.32599639892578)"><path stroke-linecap="butt" stroke-linejoin="miter" fill-opacity="0" stroke-miterlimit="10" stroke="rgb(255,255,255)" stroke-opacity="1" stroke-width="1" d=" M0,-5.886000156402588 C3.1540000438690186,-5.886000156402588 5.710999965667725,-3.250999927520752 5.710999965667725,0 C5.710999965667725,3.250999927520752 3.1540000438690186,5.886000156402588 0,5.886000156402588 C-3.1540000438690186,5.886000156402588 -5.710999965667725,3.250999927520752 -5.710999965667725,0 C-5.710999965667725,-3.250999927520752 -3.1540000438690186,-5.886000156402588 0,-5.886000156402588z"></path></g><g opacity="1" transform="matrix(1,0,0,1,157.0659942626953,72.36299896240234)"><path stroke-linecap="butt" stroke-linejoin="miter" fill-opacity="0" stroke-miterlimit="10" stroke="rgb(255,255,255)" stroke-opacity="1" stroke-width="1" d=" M-2.6459999084472656,1.2059999704360962 C-2.6459999084472656,1.2059999704360962 0.02500000037252903,-1.2059999704360962 2.6459999084472656,0.9390000104904175"></path></g><g opacity="1" transform="matrix(1,0,0,1,172.77699279785156,69.17500305175781)"><path stroke-linecap="round" stroke-linejoin="miter" fill-opacity="0" stroke-miterlimit="10" stroke="rgb(255,255,255)" stroke-opacity="1" stroke-width="1" d=" M-2.255000114440918,2.01200008392334 C-2.255000114440918,2.01200008392334 0.7020000219345093,-1.2489999532699585 2.255000114440918,-2.01200008392334"></path></g><g opacity="1" transform="matrix(1,0,0,1,141.4530029296875,69.27200317382812)"><path stroke-linecap="round" stroke-linejoin="miter" fill-opacity="0" stroke-miterlimit="10" stroke="rgb(255,255,255)" stroke-opacity="1" stroke-width="1" d=" M2.3269999027252197,1.7899999618530273 C2.3269999027252197,1.7899999618530273 -0.4869999885559082,-1.1169999837875366 -2.3269999027252197,-1.7899999618530273"></path></g></g></g></g><g transform="matrix(1,0,0,1,-5,5)" opacity="0.6" style="display: block;"><path fill="rgb(181,181,181)" fill-opacity="1" d=" M135.04800415039062,8.585000038146973 C131.70899963378906,8.1850004196167 128.46099853515625,9.10099983215332 125.32099914550781,10.246000289916992 C122.68900299072266,11.206000328063965 120.06500244140625,12.220999717712402 117.52100372314453,13.42199993133545 C112.84300231933594,15.628000259399414 107.84300231933594,18.780000686645508 105.3550033569336,23.83099937438965 C104.66400146484375,25.04800033569336 104.43099975585938,26.472999572753906 104.6969985961914,27.847000122070312 C105.05999755859375,29.086000442504883 105.95099639892578,30.10099983215332 107.13300323486328,30.6200008392334 C109.77200317382812,31.89900016784668 112.94000244140625,31.374000549316406 115.61599731445312,30.527000427246094 C118.7030029296875,29.475000381469727 121.6969985961914,28.167999267578125 124.56800079345703,26.618999481201172 C127.42400360107422,25.149999618530273 130.19900512695312,23.52899932861328 132.8820037841797,21.761999130249023 C135.53500366210938,20.06999969482422 138.06300354003906,18.18899917602539 140.4459991455078,16.134000778198242 C141.63999938964844,15.08899974822998 142.718994140625,13.920999526977539 143.66700744628906,12.64900016784668 C144.28799438476562,11.800000190734863 145.16700744628906,10.425000190734863 143.97500610351562,9.619999885559082 C143.4459991455078,9.34000015258789 142.85800170898438,9.190999984741211 142.25900268554688,9.185999870300293 C141.46499633789062,9.098999977111816 140.66700744628906,9.060999870300293 139.86900329589844,9.071000099182129 C138.3489990234375,9.095000267028809 136.8350067138672,9.269000053405762 135.34800720214844,9.588000297546387 C132.2729949951172,10.291999816894531 129.302001953125,11.388999938964844 126.50800323486328,12.852999687194824 C120.96099853515625,15.532999992370605 115.87999725341797,19.086999893188477 111.45999908447266,23.378999710083008 C109.25599670410156,25.509000778198242 107.4229965209961,27.990999221801758 106.03700256347656,30.724000930786133 C104.9469985961914,33.005001068115234 103.68399810791016,36.75299835205078 105.72200012207031,38.847999572753906 C106.62999725341797,39.683998107910156 107.78600311279297,40.20100021362305 109.01499938964844,40.31999969482422 C110.46399688720703,40.527000427246094 111.93399810791016,40.54600143432617 113.38800048828125,40.37699890136719 C116.43800354003906,39.96799850463867 119.39700317382812,39.04600143432617 122.13999938964844,37.650001525878906 C124.91300201416016,36.2859992980957 127.58899688720703,34.73099899291992 130.1479949951172,32.99700164794922 C132.5590057373047,31.440000534057617 134.8000030517578,29.634000778198242 136.8350067138672,27.608999252319336 C137.82899475097656,26.60099983215332 138.73699951171875,25.51099967956543 139.5500030517578,24.35099983215332 C139.97999572753906,23.733999252319336 140.38099670410156,23.091999053955078 140.75,22.43199920654297 C141.19200134277344,21.820999145507812 141.45799255371094,21.100000381469727 141.51800537109375,20.347999572753906 C141.447998046875,18.899999618530273 139.8000030517578,18.590999603271484 138.7519989013672,18.47599983215332 C137.24000549316406,18.354999542236328 135.72000122070312,18.542999267578125 134.28399658203125,19.0310001373291 C131.46200561523438,19.948999404907227 128.73800659179688,21.145999908447266 126.15399932861328,22.604000091552734 C123.55500030517578,24.010000228881836 121.11000061035156,25.687000274658203 118.86199951171875,27.604000091552734 C117.7030029296875,28.597000122070312 116.61100006103516,29.666000366210938 115.59300231933594,30.804000854492188 C114.5739974975586,31.788000106811523 113.80500030517578,33.000999450683594 113.3479995727539,34.34199905395508 C112.50399780273438,37.59700012207031 115.98600006103516,38.792999267578125 118.27999877929688,39.027000427246094 C121.28500366210938,39.180999755859375 124.27300262451172,38.492000579833984 126.90699768066406,37.0369987487793 C129.55499267578125,35.7239990234375 132.05299377441406,34.12699890136719 134.35499572753906,32.27199935913086 C136.64500427246094,30.489999771118164 138.5919952392578,28.30699920654297 140.1009979248047,25.82900047302246 C140.47799682617188,25.381999969482422 140.66700744628906,24.80500030517578 140.6280059814453,24.22100067138672 C140.4550018310547,23.709999084472656 140.0240020751953,23.32900047302246 139.4949951171875,23.22100067138672 C138.1439971923828,22.920000076293945 136.72799682617188,23.173999786376953 135.56700134277344,23.92799949645996 C134.24899291992188,24.722999572753906 133.01499938964844,25.649999618530273 131.88600158691406,26.695999145507812 C130.69200134277344,27.73900032043457 129.56100463867188,28.854000091552734 128.5,30.031999588012695 C127.4469985961914,31.170000076293945 126.50900268554688,32.40999984741211 125.69999694824219,33.731998443603516 C124.8759994506836,34.957000732421875 124.34600067138672,36.35599899291992 124.1520004272461,37.81999969482422 C123.9749984741211,41.1879997253418 128.37100219726562,40.638999938964844 130.20599365234375,39.90800094604492 C131.5850067138672,39.305999755859375 132.87899780273438,38.525001525878906 134.05599975585938,37.58700180053711 C135.22300720214844,36.73099899291992 136.3179931640625,35.779998779296875 137.3300018310547,34.744998931884766 C138.322998046875,33.72700119018555 139.1840057373047,32.5880012512207 139.89300537109375,31.354999542236328 C140.47999572753906,30.315000534057617 141.29299926757812,28.839000701904297 140.73399353027344,27.601999282836914 C140.19000244140625,26.395999908447266 138.7830047607422,26.349000930786133 137.73399353027344,26.569000244140625 C136.2689971923828,26.878999710083008 134.9320068359375,27.621999740600586 133.8939971923828,28.701000213623047 C132.4320068359375,30.219999313354492 131.35699462890625,33.2239990234375 133.08200073242188,35.000999450683594 C134.87399291992188,36.854000091552734 138.125,35.80099868774414 139.83200073242188,34.354000091552734 C140.68099975585938,33.63399887084961 141.86599731445312,32.37099838256836 141.7729949951172,31.093000411987305 C141.60800170898438,30.1200008392334 140.68499755859375,29.464000701904297 139.71200561523438,29.628000259399414 C139.61599731445312,29.645000457763672 139.52200317382812,29.667999267578125 139.42999267578125,29.700000762939453 C138.2429962158203,30.04599952697754 137.36700439453125,31.051000595092773 137.18800354003906,32.27399826049805 C137.04200744628906,33.41299819946289 137.4429931640625,34.55400085449219 138.2689971923828,35.35200119018555 C140.052001953125,37.12300109863281 142.75900268554688,36.308998107910156 143.79200744628906,34.05799865722656 C143.98399353027344,33.641998291015625 143.21800231933594,33.189998626708984 143.0019989013672,33.65800094604492 C142.5330047607422,34.77899932861328 141.4409942626953,35.512001037597656 140.2259979248047,35.52199935913086 C138.82400512695312,35.37200164794922 137.80999755859375,34.11399841308594 137.9600067138672,32.7130012512207 C138.08299255371094,31.56599998474121 138.95899963378906,30.645000457763672 140.09800720214844,30.464000701904297 C142.0659942626953,30.371999740600586 139.89100646972656,33.06399917602539 139.29800415039062,33.57899856567383 C138.4219970703125,34.358001708984375 137.33999633789062,34.867000579833984 136.18099975585938,35.042999267578125 C135.10699462890625,35.189998626708984 133.71200561523438,35.10300064086914 133.2449951171875,33.84299850463867 C132.39500427246094,31.55299949645996 134.38600158691406,29.18000030517578 136.08900451660156,28.18899917602539 C136.968994140625,27.677000045776367 138.42999267578125,27.018999099731445 139.44400024414062,27.4060001373291 C140.7740020751953,27.916000366210938 139.44400024414062,30.15999984741211 139.00100708007812,30.924999237060547 C137.69900512695312,33.04800033569336 136.0019989013672,34.9010009765625 134.00100708007812,36.382999420166016 C131.9720001220703,37.972999572753906 129.50100708007812,39.78300094604492 126.8740005493164,39.573001861572266 C126.28399658203125,39.5989990234375 125.71399688720703,39.36600112915039 125.30899810791016,38.9370002746582 C125.02799987792969,38.28099822998047 125.0459976196289,37.5359992980957 125.35800170898438,36.89400100708008 C125.7969970703125,35.597999572753906 126.4229965209961,34.37200164794922 127.21700286865234,33.25699996948242 C128.78799438476562,31.077999114990234 130.61900329589844,29.099000930786133 132.66900634765625,27.36400032043457 C133.66799926757812,26.45199966430664 134.7429962158203,25.628000259399414 135.88499450683594,24.902000427246094 C136.41000366210938,24.570999145507812 136.97900390625,24.312999725341797 137.57400512695312,24.135000228881836 C137.90499877929688,24.041000366210938 138.2480010986328,23.992000579833984 138.59300231933594,23.98900032043457 C138.80099487304688,23.98900032043457 139.43800354003906,23.974000930786133 139.5850067138672,24.174999237060547 C139.88499450683594,24.591999053955078 138.98500061035156,25.709999084472656 138.77200317382812,26.041000366210938 C138.40899658203125,26.5939998626709 138.0189971923828,27.12700080871582 137.60299682617188,27.641000747680664 C136.81900024414062,28.610000610351562 135.9600067138672,29.51799964904785 135.03500366210938,30.354000091552734 C133.20700073242188,31.979000091552734 131.2259979248047,33.42300033569336 129.11900329589844,34.665000915527344 C126.8759994506836,36.12099838256836 124.41000366210938,37.19900131225586 121.81900024414062,37.856998443603516 C120.50800323486328,38.16400146484375 119.15299987792969,38.231998443603516 117.81900024414062,38.05699920654297 C116.59300231933594,38.01300048828125 115.43299865722656,37.494998931884766 114.58100128173828,36.61199951171875 C113.71600341796875,35.4119987487793 114.5459976196289,33.8120002746582 115.28099822998047,32.8120002746582 C116.03600311279297,31.82200050354004 116.86599731445312,30.892000198364258 117.76399993896484,30.027999877929688 C119.58899688720703,28.226999282836914 121.59300231933594,26.618999481201172 123.74700164794922,25.22800064086914 C125.7959976196289,23.902000427246094 127.94200134277344,22.73200035095215 130.16600036621094,21.72800064086914 C132.5659942626953,20.636999130249023 135.15899658203125,19.434999465942383 137.79299926757812,19.361000061035156 C138.4770050048828,19.327999114990234 139.16200256347656,19.4060001373291 139.8209991455078,19.590999603271484 C140.1060028076172,19.677000045776367 140.4530029296875,19.781999588012695 140.53199768066406,20.14900016784668 C140.531005859375,20.597999572753906 140.39100646972656,21.035999298095703 140.1320037841797,21.402000427246094 C139.55299377441406,22.510000228881836 138.8780059814453,23.56399917602539 138.11300659179688,24.55299949645996 C136.61099243164062,26.476999282836914 134.8769989013672,28.207000732421875 132.9499969482422,29.70400047302246 C131,31.22100067138672 128.9600067138672,32.61600112915039 126.83899688720703,33.882999420166016 C124.55000305175781,35.32400131225586 122.15399932861328,36.584999084472656 119.66999816894531,37.654998779296875 C117.22599792480469,38.72200012207031 114.61499786376953,39.35499954223633 111.9540023803711,39.52299880981445 C109.97100067138672,39.606998443603516 106.375,39.66699981689453 105.76399993896484,36.98899841308594 C105.5780029296875,35.617000579833984 105.75499725341797,34.21900177001953 106.27899932861328,32.9370002746582 C106.71800231933594,31.6560001373291 107.30699920654297,30.43199920654297 108.03500366210938,29.290000915527344 C109.45099639892578,27.100000381469727 111.13099670410156,25.090999603271484 113.03500366210938,23.308000564575195 C116.86299896240234,19.770999908447266 121.1500015258789,16.763999938964844 125.77999877929688,14.368000030517578 C130.5279998779297,11.803000450134277 135.7550048828125,9.753000259399414 141.13699340820312,9.984999656677246 C141.78399658203125,9.998000144958496 142.4290008544922,10.059000015258789 143.0679931640625,10.166999816894531 C144.02200317382812,10.350000381469727 143.45700073242188,11.234000205993652 143.08200073242188,11.767000198364258 C142.29100036621094,12.87600040435791 141.38999938964844,13.902999877929688 140.39300537109375,14.831000328063965 C138.4320068359375,16.625 136.33700561523438,18.266000747680664 134.12600708007812,19.739999771118164 C129.63600158691406,22.860000610351562 124.86799621582031,25.55900001525879 119.88300323486328,27.80299949645996 C117.38400268554688,29.075000762939453 114.70500183105469,29.95199966430664 111.93800354003906,30.402999877929688 C109.85199737548828,30.63599967956543 106.09700012207031,30.469999313354492 105.53800201416016,27.610000610351562 C105.05999755859375,25.149999618530273 107.13099670410156,22.527999877929688 108.5770034790039,20.881000518798828 C110.08699798583984,19.19099998474121 111.8270034790039,17.72100067138672 113.74600219726562,16.514999389648438 C115.8280029296875,15.21399974822998 118.01300048828125,14.086000442504883 120.28099822998047,13.145000457763672 C122.63999938964844,12.131999969482422 125.03199768066406,11.161999702453613 127.4530029296875,10.345000267028809 C129.8990020751953,9.414999961853027 132.50999450683594,8.994999885559082 135.125,9.11299991607666 C135.3780059814453,9.133999824523926 135.2729949951172,8.61299991607666 135.0540008544922,8.585000038146973 C135.0540008544922,8.585000038146973 135.04800415039062,8.585000038146973 135.04800415039062,8.585000038146973z"></path></g><g transform="matrix(1,0,0,1,0,0)" opacity="1" style="display: block;"><g opacity="1" transform="matrix(1,0,0,1,160.10899353027344,180.5)"><path fill="rgb(77,96,151)" fill-opacity="1" d=" M-123.96800231933594,-8 C-123.96800231933594,-8 123.74600219726562,-8 123.74600219726562,-8 C125.24500274658203,-8 126.6729965209961,-7.354000091552734 127.66200256347656,-6.22599983215332 C127.66200256347656,-6.22599983215332 137.4239959716797,4.910999774932861 137.4239959716797,4.910999774932861 C138.1020050048828,5.684999942779541 138.0240020751953,6.861000061035156 137.25,7.538000106811523 C136.91099548339844,7.835999965667725 136.47500610351562,8 136.0240020751953,8 C136.0240020751953,8 -136.24000549316406,8 -136.24000549316406,8 C-137.26800537109375,8 -138.1020050048828,7.165999889373779 -138.1020050048828,6.138000011444092 C-138.1009979248047,5.686999797821045 -137.93699645996094,5.25 -137.63999938964844,4.910999774932861 C-137.63999938964844,4.910999774932861 -127.87899780273438,-6.22599983215332 -127.87899780273438,-6.22599983215332 C-126.89099884033203,-7.353000164031982 -125.46600341796875,-7.999000072479248 -123.96800231933594,-8z"></path></g><g opacity="0.12" transform="matrix(1,0,0,1,158.99899291992188,180.5)"><path fill="rgb(0,0,0)" fill-opacity="1" d=" M-34.83599853515625,-7.150000095367432 C-34.83599853515625,-7.150000095367432 32.75199890136719,-8 32.75199890136719,-8 C32.75199890136719,-8 61,8 61,8 C61,8 -61,8 -61,8 C-61,8 -34.83599853515625,-7.150000095367432 -34.83599853515625,-7.150000095367432z"></path></g><g opacity="1" transform="matrix(1,0,0,1,0,-1.5)"><g opacity="1" transform="matrix(1,0,0,1,160,157.49899291992188)"><path fill="rgb(193,193,193)" fill-opacity="1" d=" M-32.23500061035156,-24.5 C-32.23500061035156,-24.5 32.23500061035156,-24.5 32.23500061035156,-24.5 C34.86600112915039,-24.5 37,-22.365999221801758 37,-19.735000610351562 C37,-19.735000610351562 37,19.735000610351562 37,19.735000610351562 C37,22.365999221801758 34.86600112915039,24.5 32.23500061035156,24.5 C32.23500061035156,24.5 -32.23500061035156,24.5 -32.23500061035156,24.5 C-34.867000579833984,24.5 -37,22.365999221801758 -37,19.735000610351562 C-37,19.735000610351562 -37,-19.735000610351562 -37,-19.735000610351562 C-37,-22.365999221801758 -34.867000579833984,-24.5 -32.23500061035156,-24.5z"></path></g><g opacity="0.4" transform="matrix(1,0,0,1,160.00100708007812,158)"><path fill="rgb(255,255,255)" fill-opacity="1" d=" M0,-5 C2.76200008392334,-5 5,-2.76200008392334 5,0 C5,2.76200008392334 2.76200008392334,5 0,5 C-2.760999917984009,5 -5,2.76200008392334 -5,0 C-5,-2.76200008392334 -2.760999917984009,-5 0,-5z"></path></g></g></g></g></svg>